<svg width="954" height="149" viewBox="0 0 954 149" fill="none" xmlns="http://www.w3.org/2000/svg">
<path d="M118.836 13.9072C143.855 13.9072 165.746 33.9946 165.746 60.2628C165.746 84.9857 143.855 106.618 118.836 106.618H48.4728V135.977H0V13.9072H118.836ZM106.327 71.0791C109.455 71.0791 111.018 69.5339 114.146 67.9887C115.709 66.4435 117.273 63.3532 117.273 60.2628C117.273 57.1724 115.709 55.6272 114.146 52.5369C112.582 50.9917 109.455 49.4465 106.327 49.4465H48.4728V69.5339H106.327V71.0791Z" fill="black"/>
<path d="M298.655 13.9072H347.128V78.805C347.128 125.161 309.6 137.522 262.691 137.522C215.782 137.522 178.255 123.615 178.255 78.805V13.9072H226.728V75.7146C226.728 95.802 242.364 98.8924 262.691 98.8924C283.019 98.8924 298.655 95.802 298.655 75.7146V13.9072Z" fill="black"/>
<path d="M415.928 13.9072V97.3472H511.31V135.977H367.455V13.9072H415.928Z" fill="black"/>
<path d="M605.128 61.8075C639.528 63.3527 688.001 64.8979 688.001 95.8016C688.001 131.341 647.346 139.067 603.564 139.067C559.782 139.067 523.819 134.431 520.692 95.8016H570.728C575.419 105.073 589.492 108.163 603.564 108.163C619.201 108.163 636.401 105.073 636.401 95.8016C636.401 91.166 620.764 89.6209 602.001 88.0757C567.601 86.5305 519.128 83.4401 519.128 54.0816C519.128 18.5423 559.782 10.8164 602.001 10.8164C645.783 10.8164 681.746 15.452 684.874 54.0816H634.837C628.583 44.8105 616.073 41.7201 602.001 41.7201C586.364 41.7201 569.164 43.2653 569.164 54.0816C570.728 60.2623 584.801 60.2623 605.128 61.8075Z" fill="black"/>
<path d="M700.51 13.5205H844.364V44.4242H748.983V59.8761H844.364V87.6894H748.983V103.141H844.364V134.045H700.51V13.5205Z" fill="black"/>
<path d="M918.027 13.5205C923.566 13.5205 928.605 14.8691 933.145 17.5662C937.776 20.1734 941.454 23.8145 944.178 28.4895C946.902 33.0746 948.264 38.1092 948.264 43.5933C948.264 49.0775 946.902 54.1121 944.178 58.6972C941.545 63.2822 937.913 66.8784 933.282 69.4856C928.651 72.0928 923.566 73.3964 918.027 73.3964C912.488 73.3964 907.403 72.0928 902.772 69.4856C898.141 66.8784 894.464 63.2822 891.739 58.6972C889.015 54.1121 887.653 49.0775 887.653 43.5933C887.653 38.1092 889.015 33.0746 891.739 28.4895C894.464 23.8145 898.141 20.1734 902.772 17.5662C907.403 14.8691 912.488 13.5205 918.027 13.5205ZM918.027 66.7885C922.294 66.7885 926.154 65.7546 929.604 63.6868C933.055 61.619 935.779 58.832 937.776 55.3258C939.774 51.7296 940.773 47.8188 940.773 43.5933C940.773 39.2779 939.774 35.3671 937.776 31.8609C935.779 28.2647 933.055 25.4328 929.604 23.365C926.154 21.2972 922.294 20.2633 918.027 20.2633C913.759 20.2633 909.855 21.2972 906.313 23.365C902.772 25.4328 900.002 28.2647 898.005 31.8609C896.007 35.457 895.008 39.3678 895.008 43.5933C895.008 47.8188 896.007 51.7296 898.005 55.3258C900.002 58.832 902.772 61.619 906.313 63.6868C909.855 65.7546 913.759 66.7885 918.027 66.7885ZM931.783 38.0642C931.783 42.8291 929.695 46.0207 925.518 47.639L932.601 59.3714H923.339L917.346 48.8527H914.077V59.3714H905.632V27.0061H917.891C922.431 27.0061 925.881 28.0849 928.242 30.2426C930.603 32.3104 931.783 34.9176 931.783 38.0642ZM914.077 42.919H917.482C919.752 42.919 921.25 42.5145 921.977 41.7053C922.794 40.8962 923.203 39.8174 923.203 38.4688C923.203 37.3001 922.794 36.3111 921.977 35.502C921.25 34.6029 920.07 34.1534 918.435 34.1534H914.077V42.919Z" fill="black"/>
</svg>
