<svg width="96" height="15" viewBox="0 0 96 15" fill="none" xmlns="http://www.w3.org/2000/svg">
<path d="M11.9584 1.40039C14.4759 1.40039 16.6788 3.42261 16.6788 6.06706C16.6788 8.55595 14.4759 10.7337 11.9584 10.7337H4.87776V13.6893H0V1.40039H11.9584ZM10.6996 7.15595C11.0143 7.15595 11.1717 7.00039 11.4863 6.84484C11.6437 6.68928 11.801 6.37817 11.801 6.06706C11.801 5.75595 11.6437 5.60039 11.4863 5.28928C11.329 5.13372 11.0143 4.97817 10.6996 4.97817H4.87776V7.00039H10.6996V7.15595Z" fill="black"/>
<path d="M30.0532 1.40039H34.931V7.93372C34.931 12.6004 31.1547 13.8448 26.4342 13.8448C21.7138 13.8448 17.9375 12.4448 17.9375 7.93372V1.40039H22.8153V7.62261C22.8153 9.64484 24.3887 9.95595 26.4342 9.95595C28.4798 9.95595 30.0532 9.64484 30.0532 7.62261V1.40039Z" fill="black"/>
<path d="M41.8543 1.40039V9.80039H51.4525V13.6893H36.9766V1.40039H41.8543Z" fill="black"/>
<path d="M60.8934 6.2222C64.355 6.37776 69.2328 6.53331 69.2328 9.64442C69.2328 13.2222 65.1417 14 60.736 14C56.3303 14 52.7113 13.5333 52.3966 9.64442H57.4317C57.9038 10.5778 59.3199 10.8889 60.736 10.8889C62.3095 10.8889 64.0403 10.5778 64.0403 9.64442C64.0403 9.17776 62.4668 9.0222 60.5787 8.86665C57.117 8.71109 52.2393 8.39998 52.2393 5.44442C52.2393 1.86664 56.3303 1.08887 60.5787 1.08887C64.9844 1.08887 68.6034 1.55553 68.9181 5.44442H63.8829C63.2536 4.51109 61.9948 4.19998 60.5787 4.19998C59.0052 4.19998 57.2744 4.35553 57.2744 5.44442C57.4317 6.06664 58.8478 6.06664 60.8934 6.2222Z" fill="black"/>
<path d="M70.4917 1.36133H84.9676V4.47244H75.3695V6.02799H84.9676V8.82799H75.3695V10.3836H84.9676V13.4947H70.4917V1.36133Z" fill="black"/>
<path d="M92.3802 1.36133C92.9376 1.36133 93.4447 1.49709 93.9015 1.76861C94.3676 2.03108 94.7376 2.39764 95.0117 2.86827C95.2859 3.32986 95.4229 3.8367 95.4229 4.38879C95.4229 4.94089 95.2859 5.44773 95.0117 5.90931C94.7468 6.3709 94.3813 6.73293 93.9153 6.9954C93.4492 7.25787 92.9376 7.38911 92.3802 7.38911C91.8228 7.38911 91.3111 7.25787 90.8451 6.9954C90.3791 6.73293 90.009 6.3709 89.7349 5.90931C89.4608 5.44773 89.3237 4.94089 89.3237 4.38879C89.3237 3.8367 89.4608 3.32986 89.7349 2.86827C90.009 2.39764 90.3791 2.03108 90.8451 1.76861C91.3111 1.49709 91.8228 1.36133 92.3802 1.36133ZM92.3802 6.72388C92.8096 6.72388 93.198 6.61979 93.5452 6.41163C93.8924 6.20346 94.1665 5.92289 94.3676 5.56991C94.5686 5.20788 94.6691 4.81418 94.6691 4.38879C94.6691 3.95436 94.5686 3.56065 94.3676 3.20767C94.1665 2.84565 93.8924 2.56055 93.5452 2.35238C93.198 2.14422 92.8096 2.04013 92.3802 2.04013C91.9507 2.04013 91.5578 2.14422 91.2015 2.35238C90.8451 2.56055 90.5664 2.84565 90.3654 3.20767C90.1644 3.5697 90.0639 3.96341 90.0639 4.38879C90.0639 4.81418 90.1644 5.20788 90.3654 5.56991C90.5664 5.92289 90.8451 6.20346 91.2015 6.41163C91.5578 6.61979 91.9507 6.72388 92.3802 6.72388ZM93.7645 3.83217C93.7645 4.31186 93.5543 4.63316 93.134 4.79608L93.8467 5.97719H92.9147L92.3116 4.91826H91.9827V5.97719H91.1329V2.71894H92.3665C92.8233 2.71894 93.1706 2.82754 93.4081 3.04476C93.6457 3.25293 93.7645 3.5154 93.7645 3.83217ZM91.9827 4.32091H92.3254C92.5538 4.32091 92.7046 4.28018 92.7777 4.19873C92.8599 4.11727 92.901 4.00866 92.901 3.8729C92.901 3.75524 92.8599 3.65568 92.7777 3.57423C92.7046 3.48372 92.5858 3.43847 92.4213 3.43847H91.9827V4.32091Z" fill="black"/>
</svg>
