<svg width="409" height="64" viewBox="0 0 409 64" fill="none" xmlns="http://www.w3.org/2000/svg">
<g style="mix-blend-mode:soft-light">
<path d="M50.9477 5.96191C61.6735 5.96191 71.0587 14.5738 71.0587 25.8355C71.0587 36.4348 61.6735 45.7091 50.9477 45.7091H20.7813V58.2957H0V5.96191H50.9477ZM45.5848 30.4727C46.9255 30.4727 47.5959 29.8102 48.9366 29.1478C49.607 28.4853 50.2773 27.1604 50.2773 25.8355C50.2773 24.5106 49.607 23.8482 48.9366 22.5232C48.2663 21.8608 46.9255 21.1983 45.5848 21.1983H20.7813V29.8102H45.5848V30.4727Z" fill="white"/>
<path d="M128.039 5.96191H148.821V33.785C148.821 53.6586 132.732 58.9582 112.621 58.9582C92.5101 58.9582 76.4214 52.9961 76.4214 33.785V5.96191H97.2027V32.46C97.2027 41.0719 103.906 42.3968 112.621 42.3968C121.336 42.3968 128.039 41.0719 128.039 32.46V5.96191Z" fill="white"/>
<path d="M178.317 5.96191V41.7344H219.209V58.2957H157.536V5.96191H178.317Z" fill="white"/>
<path d="M259.431 26.4977C274.179 27.1601 294.96 27.8226 294.96 41.0717C294.96 56.3081 277.531 59.6204 258.761 59.6204C239.99 59.6204 224.572 57.633 223.231 41.0717H244.683C246.694 45.0464 252.727 46.3713 258.761 46.3713C265.464 46.3713 272.838 45.0464 272.838 41.0717C272.838 39.0843 266.135 38.4219 258.09 37.7594C243.342 37.0969 222.561 35.772 222.561 23.1854C222.561 7.94899 239.991 4.63672 258.09 4.63672C276.861 4.63672 292.279 6.62408 293.62 23.1854H272.168C269.487 19.2107 264.124 17.8858 258.09 17.8858C251.387 17.8858 244.013 18.5482 244.013 23.1854C244.683 25.8352 250.716 25.8352 259.431 26.4977Z" fill="white"/>
<path d="M300.323 5.7959H361.997V19.045H321.105V25.6695H361.997V37.5937H321.105V44.2182H361.997V57.4673H300.323V5.7959Z" fill="white"/>
<path d="M393.577 5.79688C395.952 5.79688 398.113 6.37503 400.059 7.53134C402.044 8.64911 403.621 10.2101 404.789 12.2144C405.957 14.1801 406.541 16.3386 406.541 18.6897C406.541 21.0409 405.957 23.1993 404.789 25.1651C403.66 27.1308 402.103 28.6725 400.117 29.7903C398.132 30.9081 395.952 31.4669 393.577 31.4669C391.203 31.4669 389.023 30.9081 387.037 29.7903C385.052 28.6725 383.475 27.1308 382.307 25.1651C381.14 23.1993 380.556 21.0409 380.556 18.6897C380.556 16.3386 381.14 14.1801 382.307 12.2144C383.475 10.2101 385.052 8.64911 387.037 7.53134C389.023 6.37503 391.203 5.79688 393.577 5.79688ZM393.577 28.634C395.407 28.634 397.062 28.1907 398.541 27.3042C400.02 26.4177 401.188 25.2229 402.044 23.7197C402.901 22.1779 403.329 20.5013 403.329 18.6897C403.329 16.8396 402.901 15.163 402.044 13.6598C401.188 12.118 400.02 10.9039 398.541 10.0174C397.062 9.1309 395.407 8.68765 393.577 8.68765C391.748 8.68765 390.074 9.1309 388.556 10.0174C387.037 10.9039 385.85 12.118 384.994 13.6598C384.137 15.2015 383.709 16.8782 383.709 18.6897C383.709 20.5013 384.137 22.1779 384.994 23.7197C385.85 25.2229 387.037 26.4177 388.556 27.3042C390.074 28.1907 391.748 28.634 393.577 28.634ZM399.475 16.3193C399.475 18.3621 398.58 19.7304 396.789 20.4242L399.825 25.4541H395.855L393.285 20.9445H391.884V25.4541H388.264V11.5784H393.519C395.465 11.5784 396.945 12.0409 397.957 12.966C398.969 13.8525 399.475 14.9703 399.475 16.3193ZM391.884 18.4006H393.344C394.317 18.4006 394.959 18.2272 395.271 17.8803C395.621 17.5334 395.796 17.0709 395.796 16.4927C395.796 15.9917 395.621 15.5677 395.271 15.2208C394.959 14.8354 394.453 14.6426 393.753 14.6426H391.884V18.4006Z" fill="white"/>
</g>
</svg>
