<svg width="12" height="12" viewBox="0 0 12 12" fill="none" xmlns="http://www.w3.org/2000/svg">
<path fill-rule="evenodd" clip-rule="evenodd" d="M5.36504 10.7301C8.32807 10.7301 10.7301 8.32807 10.7301 5.36504C10.7301 2.40201 8.32807 0 5.36504 0C2.40201 0 0 2.40201 0 5.36504C0 8.32807 2.40201 10.7301 5.36504 10.7301ZM5.36503 9.19721C7.48148 9.19721 9.1972 7.48149 9.1972 5.36504C9.1972 3.24859 7.48148 1.53287 5.36503 1.53287C3.24858 1.53287 1.53286 3.24859 1.53286 5.36504C1.53286 7.48149 3.24858 9.19721 5.36503 9.19721Z" fill="black"/>
<rect x="7.66455" y="8.74805" width="1.53287" height="4.5986" transform="rotate(-45 7.66455 8.74805)" fill="black"/>
</svg>
