<svg width="12" height="14" viewBox="0 0 12 14" fill="none" xmlns="http://www.w3.org/2000/svg">
<path fill-rule="evenodd" clip-rule="evenodd" d="M6.0002 9.6C8.65116 9.6 10.8002 7.45097 10.8002 4.8C10.8002 2.14903 8.65116 0 6.0002 0C3.34923 0 1.2002 2.14903 1.2002 4.8C1.2002 7.45097 3.34923 9.6 6.0002 9.6ZM6.00024 8.4C7.98847 8.4 9.60024 6.78822 9.60024 4.8C9.60024 2.81177 7.98847 1.2 6.00024 1.2C4.01202 1.2 2.40024 2.81177 2.40024 4.8C2.40024 6.78822 4.01202 8.4 6.00024 8.4Z" fill="black"/>
<path fill-rule="evenodd" clip-rule="evenodd" d="M6 8.40043C6.8415 8.40043 7.61556 8.11171 8.22853 7.62793C10.4388 8.51264 12 10.6742 12 13.2004H10.8C10.8 10.5495 8.65097 8.40043 6 8.40043C3.34903 8.40043 1.2 10.5495 1.2 13.2004H0C0 10.6742 1.56123 8.51264 3.77147 7.62793C4.38444 8.11171 5.1585 8.40043 6 8.40043Z" fill="black"/>
</svg>
